<svg width="14" height="14" viewBox="0 0 14 14" fill="none" xmlns="http://www.w3.org/2000/svg">
<path d="M6.7501 4.00586C8.5958 4.00586 10.1192 5.5293 10.1192 7.375C10.1192 9.25 8.5958 10.7441 6.7501 10.7441C4.8751 10.7441 3.38096 9.25 3.38096 7.375C3.38096 5.5293 4.8751 4.00586 6.7501 4.00586ZM6.7501 9.57227C7.95127 9.57227 8.91806 8.60547 8.91806 7.375C8.91806 6.17383 7.95127 5.20703 6.7501 5.20703C5.51963 5.20703 4.55283 6.17383 4.55283 7.375C4.55283 8.60547 5.54892 9.57227 6.7501 9.57227ZM11.0274 3.88867C11.0274 4.32812 10.6759 4.67969 10.2364 4.67969C9.79697 4.67969 9.44541 4.32812 9.44541 3.88867C9.44541 3.44922 9.79697 3.09766 10.2364 3.09766C10.6759 3.09766 11.0274 3.44922 11.0274 3.88867ZM13.254 4.67969C13.3126 5.76367 13.3126 9.01562 13.254 10.0996C13.1954 11.1543 12.961 12.0625 12.1993 12.8535C11.4376 13.6152 10.5001 13.8496 9.44541 13.9082C8.36142 13.9668 5.10947 13.9668 4.02549 13.9082C2.9708 13.8496 2.0626 13.6152 1.27158 12.8535C0.509861 12.0625 0.275486 11.1543 0.216893 10.0996C0.158299 9.01562 0.158299 5.76367 0.216893 4.67969C0.275486 3.625 0.509861 2.6875 1.27158 1.92578C2.0626 1.16406 2.9708 0.929688 4.02549 0.871094C5.10947 0.8125 8.36142 0.8125 9.44541 0.871094C10.5001 0.929688 11.4376 1.16406 12.1993 1.92578C12.961 2.6875 13.1954 3.625 13.254 4.67969ZM11.8478 11.2422C12.1993 10.3926 12.1114 8.3418 12.1114 7.375C12.1114 6.4375 12.1993 4.38672 11.8478 3.50781C11.6134 2.95117 11.1739 2.48242 10.6173 2.27734C9.73838 1.92578 7.6876 2.01367 6.7501 2.01367C5.7833 2.01367 3.73252 1.92578 2.88291 2.27734C2.29697 2.51172 1.85752 2.95117 1.62314 3.50781C1.27158 4.38672 1.35947 6.4375 1.35947 7.375C1.35947 8.3418 1.27158 10.3926 1.62314 11.2422C1.85752 11.8281 2.29697 12.2676 2.88291 12.502C3.73252 12.8535 5.7833 12.7656 6.7501 12.7656C7.6876 12.7656 9.73838 12.8535 10.6173 12.502C11.1739 12.2676 11.6427 11.8281 11.8478 11.2422Z" fill="white"/>
<a href="https://www.figma.com/design/5D5WrqY3p7mmd2fQC6pwvT?node-id=2-992">
<rect fill="black" fill-opacity="0" x="-0.282375" y="-1.125" width="13.125" height="17.25"/>
</a>
</svg>
