<svg width="14" height="14" viewBox="0 0 14 14" fill="none" xmlns="http://www.w3.org/2000/svg">
<path d="M3.29794 14H0.573332V5.24023H3.29794V14ZM1.92099 4.06836C1.07138 4.06836 0.368254 3.33594 0.368254 2.45703C0.368254 1.60742 1.07138 0.904297 1.92099 0.904297C2.79989 0.904297 3.50302 1.60742 3.50302 2.45703C3.50302 3.33594 2.79989 4.06836 1.92099 4.06836ZM13.464 14H10.7686V9.75195C10.7686 8.72656 10.7393 7.4375 9.3331 7.4375C7.92685 7.4375 7.72177 8.52148 7.72177 9.66406V14H4.99716V5.24023H7.60458V6.44141H7.63388C8.01474 5.76758 8.89364 5.03516 10.212 5.03516C12.9659 5.03516 13.4933 6.85156 13.4933 9.19531V14H13.464Z" fill="white"/>
<a href="https://www.figma.com/design/5D5WrqY3p7mmd2fQC6pwvT?node-id=2-992">
<rect fill="black" fill-opacity="0" x="0.178312" y="-1.125" width="13.125" height="17.25"/>
</a>
</svg>
