<svg width="16" height="13" viewBox="0 0 16 13" fill="none" xmlns="http://www.w3.org/2000/svg">
<path d="M13.5181 3.32812C13.5181 3.47461 13.5181 3.5918 13.5181 3.73828C13.5181 7.81055 10.442 12.4688 4.78768 12.4688C3.02987 12.4688 1.41854 11.9707 0.0708838 11.0918C0.305259 11.1211 0.539634 11.1504 0.803306 11.1504C2.23885 11.1504 3.55721 10.6523 4.6119 9.83203C3.26424 9.80273 2.12167 8.92383 1.74081 7.69336C1.94588 7.72266 2.12167 7.75195 2.32674 7.75195C2.59042 7.75195 2.88338 7.69336 3.11776 7.63477C1.71151 7.3418 0.656821 6.11133 0.656821 4.61719V4.58789C1.06698 4.82227 1.56502 4.93945 2.06307 4.96875C1.21346 4.41211 0.686118 3.47461 0.686118 2.41992C0.686118 1.83398 0.832603 1.30664 1.09627 0.867188C2.61971 2.71289 4.90487 3.94336 7.4537 4.08984C7.3951 3.85547 7.36581 3.62109 7.36581 3.38672C7.36581 1.6875 8.74276 0.310547 10.442 0.310547C11.3209 0.310547 12.1119 0.662109 12.6978 1.27734C13.3717 1.13086 14.0455 0.867188 14.6314 0.515625C14.3971 1.24805 13.9283 1.83398 13.2838 2.21484C13.899 2.15625 14.5142 1.98047 15.0416 1.74609C14.6314 2.36133 14.1041 2.88867 13.5181 3.32812Z" fill="white"/>
<a href="https://www.figma.com/design/5D5WrqY3p7mmd2fQC6pwvT?node-id=2-992">
<rect fill="black" fill-opacity="0" x="-0.749063" y="-1.125" width="15" height="17.25"/>
</a>
</svg>
